<?xml version="1.0" standalone="no"?>
<!DOCTYPE svg PUBLIC "-//W3C//DTD SVG 20010904//EN"
 "http://www.w3.org/TR/2001/REC-SVG-20010904/DTD/svg10.dtd">
<svg version="1.0" xmlns="http://www.w3.org/2000/svg"
 width="800.000000pt" height="800.000000pt" viewBox="0 0 800.000000 800.000000"
 preserveAspectRatio="xMidYMid meet">
<metadata>
Created by potrace 1.11, written by Peter Selinger 2001-2013
</metadata>
<g transform="translate(0.000000,800.000000) scale(0.100000,-0.100000)"
fill="#000000" stroke="none">
<path d="M3749 7996 c-2 -2 -44 -6 -94 -10 -94 -7 -341 -41 -410 -56 -22 -5
-55 -12 -73 -15 -122 -21 -510 -135 -597 -174 -11 -5 -56 -24 -100 -41 -89
-36 -370 -172 -455 -221 -207 -120 -467 -302 -606 -424 -181 -158 -374 -353
-490 -495 -16 -19 -34 -40 -39 -46 -6 -6 -51 -66 -100 -133 -132 -177 -263
-392 -359 -586 -85 -171 -95 -194 -136 -295 -12 -30 -26 -64 -31 -75 -63 -145
-176 -561 -204 -750 -3 -23 -7 -52 -10 -65 -3 -14 -7 -49 -11 -78 -3 -29 -7
-62 -9 -72 -27 -138 -27 -754 0 -921 2 -13 6 -46 9 -74 3 -27 8 -61 10 -75 3
-14 10 -54 16 -90 93 -556 339 -1143 679 -1619 473 -662 1134 -1166 1886
-1439 132 -48 277 -94 355 -112 221 -53 220 -53 385 -80 243 -39 318 -44 610
-45 243 0 380 6 500 21 49 6 309 49 351 58 185 39 495 130 599 175 11 5 72 30
135 56 592 245 1160 677 1573 1195 216 271 426 625 552 930 26 63 51 124 56
135 33 76 124 371 150 490 5 22 11 49 14 60 14 58 32 148 39 200 4 23 8 52 11
65 3 14 7 49 11 78 3 29 7 62 9 72 28 143 27 718 0 925 -3 17 -7 50 -10 75 -2
25 -6 54 -9 65 -2 11 -9 54 -16 95 -7 41 -19 104 -27 140 -8 36 -17 74 -19 84
-11 56 -50 196 -86 306 -328 1017 -1063 1872 -2016 2348 -115 57 -196 93 -367
163 -87 35 -317 108 -405 129 -19 5 -64 16 -99 24 -70 18 -300 61 -371 70 -25
3 -67 8 -95 11 -27 3 -66 8 -85 11 -40 6 -615 15 -621 10z"/>
</g>
</svg>
